<?xml version="1.0" encoding="UTF-8" standalone="no"?>
<!DOCTYPE svg PUBLIC "-//W3C//DTD SVG 1.1//EN"
 "http://www.w3.org/Graphics/SVG/1.1/DTD/svg11.dtd">
<!-- Generated by graphviz version 2.36.0 (20140111.2315)
 -->
<!-- Title: AVL Pages: 1 -->
<svg width="343pt" height="260pt"
 viewBox="0.00 0.00 343.00 260.00" xmlns="http://www.w3.org/2000/svg" xmlns:xlink="http://www.w3.org/1999/xlink">
<g id="graph0" class="graph" transform="scale(1 1) rotate(0) translate(4 256)">
<title>AVL</title>
<polygon fill="white" stroke="none" points="-4,4 -4,-256 339,-256 339,4 -4,4"/>
<!-- 355 -->
<g id="node1" class="node"><title>355</title>
<ellipse fill="none" stroke="black" cx="135" cy="-234" rx="27" ry="18"/>
<text text-anchor="middle" x="135" y="-230.3" font-family="Times,serif" font-size="14.00">355</text>
</g>
<!-- 81 -->
<g id="node2" class="node"><title>81</title>
<ellipse fill="none" stroke="black" cx="99" cy="-162" rx="27" ry="18"/>
<text text-anchor="middle" x="99" y="-158.3" font-family="Times,serif" font-size="14.00">81</text>
</g>
<!-- 355&#45;&gt;81 -->
<g id="edge1" class="edge"><title>355&#45;&gt;81</title>
<path fill="none" stroke="black" d="M126.65,-216.765C122.288,-208.283 116.853,-197.714 111.959,-188.197"/>
<polygon fill="black" stroke="black" points="114.99,-186.439 107.304,-179.147 108.765,-189.641 114.99,-186.439"/>
</g>
<!-- 444 -->
<g id="node3" class="node"><title>444</title>
<ellipse fill="none" stroke="black" cx="171" cy="-162" rx="27" ry="18"/>
<text text-anchor="middle" x="171" y="-158.3" font-family="Times,serif" font-size="14.00">444</text>
</g>
<!-- 355&#45;&gt;444 -->
<g id="edge2" class="edge"><title>355&#45;&gt;444</title>
<path fill="none" stroke="black" d="M143.35,-216.765C147.712,-208.283 153.147,-197.714 158.041,-188.197"/>
<polygon fill="black" stroke="black" points="161.235,-189.641 162.696,-179.147 155.01,-186.439 161.235,-189.641"/>
</g>
<!-- 28 -->
<g id="node4" class="node"><title>28</title>
<ellipse fill="none" stroke="black" cx="27" cy="-90" rx="27" ry="18"/>
<text text-anchor="middle" x="27" y="-86.3" font-family="Times,serif" font-size="14.00">28</text>
</g>
<!-- 81&#45;&gt;28 -->
<g id="edge3" class="edge"><title>81&#45;&gt;28</title>
<path fill="none" stroke="black" d="M84.4297,-146.834C74.2501,-136.938 60.4761,-123.546 48.9694,-112.359"/>
<polygon fill="black" stroke="black" points="51.4055,-109.846 41.7957,-105.385 46.5259,-114.865 51.4055,-109.846"/>
</g>
<!-- 284 -->
<g id="node5" class="node"><title>284</title>
<ellipse fill="none" stroke="black" cx="99" cy="-90" rx="27" ry="18"/>
<text text-anchor="middle" x="99" y="-86.3" font-family="Times,serif" font-size="14.00">284</text>
</g>
<!-- 81&#45;&gt;284 -->
<g id="edge4" class="edge"><title>81&#45;&gt;284</title>
<path fill="none" stroke="black" d="M99,-143.697C99,-135.983 99,-126.712 99,-118.112"/>
<polygon fill="black" stroke="black" points="102.5,-118.104 99,-108.104 95.5001,-118.104 102.5,-118.104"/>
</g>
<!-- 409 -->
<g id="node6" class="node"><title>409</title>
<ellipse fill="none" stroke="black" cx="171" cy="-90" rx="27" ry="18"/>
<text text-anchor="middle" x="171" y="-86.3" font-family="Times,serif" font-size="14.00">409</text>
</g>
<!-- 444&#45;&gt;409 -->
<g id="edge5" class="edge"><title>444&#45;&gt;409</title>
<path fill="none" stroke="black" d="M171,-143.697C171,-135.983 171,-126.712 171,-118.112"/>
<polygon fill="black" stroke="black" points="174.5,-118.104 171,-108.104 167.5,-118.104 174.5,-118.104"/>
</g>
<!-- 624 -->
<g id="node7" class="node"><title>624</title>
<ellipse fill="none" stroke="black" cx="243" cy="-90" rx="27" ry="18"/>
<text text-anchor="middle" x="243" y="-86.3" font-family="Times,serif" font-size="14.00">624</text>
</g>
<!-- 444&#45;&gt;624 -->
<g id="edge6" class="edge"><title>444&#45;&gt;624</title>
<path fill="none" stroke="black" d="M185.57,-146.834C195.75,-136.938 209.524,-123.546 221.031,-112.359"/>
<polygon fill="black" stroke="black" points="223.474,-114.865 228.204,-105.385 218.595,-109.846 223.474,-114.865"/>
</g>
<!-- 400 -->
<g id="node8" class="node"><title>400</title>
<ellipse fill="none" stroke="black" cx="130" cy="-18" rx="27" ry="18"/>
<text text-anchor="middle" x="130" y="-14.3" font-family="Times,serif" font-size="14.00">400</text>
</g>
<!-- 409&#45;&gt;400 -->
<g id="edge7" class="edge"><title>409&#45;&gt;400</title>
<path fill="none" stroke="black" d="M161.491,-72.7646C156.471,-64.1948 150.204,-53.494 144.585,-43.9004"/>
<polygon fill="black" stroke="black" points="147.532,-42.0072 139.458,-35.1473 141.492,-45.5451 147.532,-42.0072"/>
</g>
<!-- id0 -->
<g id="node9" class="node"><title>id0</title>
<ellipse fill="black" stroke="black" cx="177" cy="-18" rx="1.8" ry="1.8"/>
</g>
<!-- 409&#45;&gt;id0 -->
<g id="edge8" class="edge"><title>409&#45;&gt;id0</title>
<path fill="none" stroke="black" d="M172.483,-71.6966C173.603,-58.6347 175.105,-41.1104 176.063,-29.9338"/>
<polygon fill="black" stroke="black" points="179.564,-30.0697 176.931,-19.8073 172.589,-29.4718 179.564,-30.0697"/>
</g>
<!-- 467 -->
<g id="node10" class="node"><title>467</title>
<ellipse fill="none" stroke="black" cx="236" cy="-18" rx="27" ry="18"/>
<text text-anchor="middle" x="236" y="-14.3" font-family="Times,serif" font-size="14.00">467</text>
</g>
<!-- 624&#45;&gt;467 -->
<g id="edge9" class="edge"><title>624&#45;&gt;467</title>
<path fill="none" stroke="black" d="M241.27,-71.6966C240.498,-63.9827 239.571,-54.7125 238.711,-46.1124"/>
<polygon fill="black" stroke="black" points="242.188,-45.7064 237.71,-36.1043 235.223,-46.403 242.188,-45.7064"/>
</g>
<!-- 759 -->
<g id="node11" class="node"><title>759</title>
<ellipse fill="none" stroke="black" cx="308" cy="-18" rx="27" ry="18"/>
<text text-anchor="middle" x="308" y="-14.3" font-family="Times,serif" font-size="14.00">759</text>
</g>
<!-- 624&#45;&gt;759 -->
<g id="edge10" class="edge"><title>624&#45;&gt;759</title>
<path fill="none" stroke="black" d="M256.785,-74.1548C265.661,-64.5957 277.363,-51.994 287.34,-41.2493"/>
<polygon fill="black" stroke="black" points="289.995,-43.5334 294.235,-33.8238 284.866,-38.7702 289.995,-43.5334"/>
</g>
</g>
</svg>
